<svg width="141" height="32" viewBox="0 0 141 32" fill="none" xmlns="http://www.w3.org/2000/svg">
<path d="M7.37953 19.6803V31.0003H0.539532V2.28029H7.37953V11.8003C8.93953 10.1203 10.4995 9.08029 13.2195 9.08029C17.4595 9.08029 20.4595 11.9203 20.4595 17.1603V31.0003H13.6195V19.4403C13.6195 16.7203 12.6595 15.2403 10.5795 15.2403C8.89953 15.2403 7.37953 16.4403 7.37953 19.6803Z" fill="black"/>
<path d="M27.2996 31.0003H20.4595L20.4596 9.48029H27.2996V31.0003Z" fill="black"/>
<path d="M41.2677 31.4003C34.8677 31.4003 30.4277 26.8003 30.4277 20.2403C30.4277 13.8403 35.0677 9.08029 41.2677 9.08029C47.1877 9.08029 51.5877 13.0803 52.1877 19.0803H44.9077C44.7877 16.7203 43.3877 15.2403 41.3077 15.2403C38.9077 15.2403 37.5077 17.0803 37.5077 20.2403C37.5077 23.4803 38.8677 25.2803 41.3077 25.2803C43.4277 25.2803 44.7477 23.8403 44.9077 21.4003H52.1877C51.5877 27.5603 47.3877 31.4003 41.2677 31.4003Z" fill="black"/>
<path d="M62.1433 19.6803V31.0003H55.3033V2.28029H62.1433V11.8003C63.7033 10.1203 65.2633 9.08029 67.9833 9.08029C72.2233 9.08029 75.2233 11.9203 75.2233 17.1603V31.0003H68.3833V19.4403C68.3833 16.7203 67.4233 15.2403 65.3433 15.2403C63.6633 15.2403 62.1433 16.4403 62.1433 19.6803Z" fill="black"/>
<path d="M89.242 31.3603C82.602 31.3603 78.162 26.8803 78.162 20.2003C78.162 13.7603 82.802 9.08029 89.202 9.08029C96.322 9.08029 101.082 14.8803 99.842 21.9603H85.242C85.602 24.6803 86.882 26.0403 89.082 26.0403C91.002 26.0403 92.282 25.2403 92.882 23.6803H99.722C98.402 28.6003 94.602 31.3603 89.242 31.3603ZM89.042 14.1203C87.002 14.1203 85.802 15.2803 85.322 17.6803H92.522C92.442 15.5203 91.082 14.1203 89.042 14.1203Z" fill="black"/>
<path d="M111.88 31.0003H105.04V15.4403H101.04V9.48029H105.04V8.72029C105.04 4.28029 107.44 1.80029 112.24 1.80029C113.8 1.80029 115.12 2.08029 116.12 2.52029V7.92029C115.56 7.68029 114.68 7.52029 113.96 7.52029C112.8 7.52029 111.88 7.88029 111.88 8.88029V9.48029H140.501V15.4403H111.88V31.0003Z" fill="black"/>
<path d="M23.8195 8.36006C26.4195 8.36006 28.2195 6.72006 28.2195 4.48006C28.2195 2.20006 26.4195 0.560059 23.8195 0.560059C21.2195 0.560059 19.4195 2.20006 19.4195 4.48006C19.4195 6.72006 21.2195 8.36006 23.8195 8.36006Z" fill="black"/>
</svg>
